<svg width="19" height="18" viewBox="0 0 19 18" fill="none" xmlns="http://www.w3.org/2000/svg">
<path d="M2.68699 17.5491L18.0111 10.5133L18.0245 10.5063C18.2664 10.3883 18.4704 10.2048 18.6131 9.97663C18.7559 9.74846 18.8318 9.4848 18.8321 9.21564C18.8324 8.94648 18.7572 8.68263 18.615 8.4541C18.4728 8.22558 18.2693 8.04155 18.0277 7.92296C18.0234 7.92026 18.019 7.91792 18.0143 7.91597L2.68699 0.88337C2.41953 0.752148 2.11753 0.708537 1.82388 0.758735C1.53022 0.808932 1.25985 0.950383 1.05117 1.163L1.03211 1.18206C0.818939 1.39851 0.68096 1.67772 0.63851 1.97854C0.0620589 6.06342 0.0705369 12.357 0.643115 16.4479C0.685045 16.7475 0.820385 17.0263 1.02988 17.2445C1.23938 17.4627 1.51235 17.6093 1.80998 17.6634C2.1076 17.7175 2.41472 17.6764 2.68762 17.5459L2.68699 17.5491ZM2.06673 2.18109L2.08134 2.18808L17.4017 9.21623L2.08325 16.245L2.06927 16.2514C6.49033 8.38738 6.49024 10.0441 2.06673 2.18109Z" fill="black"/>
</svg>
